<?xml version="1.0" encoding="UTF-8"?>
<svg xmlns="http://www.w3.org/2000/svg" viewBox="0 0 1024 1024" width="1024" height="1024">
  <rect x="0" y="0" width="1024" height="1024" fill="#FDFBF7"/>
  <path d="M493.47 32.17C561.61 30.01 630.49 41.17 693.32 67.47C745.45 89.29 792.6 119.15 834.95 156.78C947.01 256.34 1005.61 411.94 989.75 560.63C984.16 613.01 970.2 663.61 948.57 711.45C927.13 758.89 897.44 803.52 861.33 841.22C818.22 886.22 767.91 922.4 711.51 948.65C656.38 974.3 595.36 988.95 534.44 991.69C469.88 994.6 401.55 984.8 341.59 960.66C329.39 955.74 317.28 950.98 305.36 945.45C235.75 913.13 174.95 861.5 128.42 800.71C54.16 703.68 20.12 576.25 35.38 454.96C37.61 437.25 40.08 419.36 44.42 402.07C66.93 312.37 112.44 229.54 179.94 165.45C220.15 127.27 266.35 95.64 317.1 73.43C372.69 49.09 432.45 34.12 493.47 32.17ZM704.35 439.4C708.76 437.42 717.32 441.06 719.58 434.91C720.64 432.01 719.99 428.07 719.99 425.03C719.99 417.86 719.99 410.69 719.99 403.52C719.99 379.83 719.99 356.14 719.99 332.45C719.99 324.34 719.99 316.24 719.99 308.14C719.99 304.62 720.83 299.81 719.51 296.51C717.12 290.49 708.72 293.77 704.16 292C703.59 282.46 704.01 272.8 704.01 263.25C704.01 259.29 704.42 255.07 703.85 251.15C703.16 246.37 698.31 242.31 693.46 242.55C686.12 242.93 683.95 249.65 683.92 255.77C683.89 264.41 685.39 284.78 683.13 291.9C678.78 292.32 670.68 290.61 668.35 295.74C667.05 298.61 667.88 303.18 667.88 306.26C667.88 314.37 667.88 322.47 667.88 330.58C667.88 355.2 667.88 379.83 667.88 404.46C667.88 411.63 667.88 418.8 667.88 425.97C667.88 428.85 667.16 432.94 668.31 435.64C670.5 440.77 678.9 439.19 683.13 439.69C684.86 444.56 683.95 450.71 683.95 455.89C683.95 467.11 683.92 478.33 683.92 489.56C683.92 496.67 683.84 506.31 693.44 506.6C703.18 506.9 704 497.92 704 490.49C704 479.58 703.97 468.67 703.97 457.76C703.97 451.69 703.49 445.4 704.35 439.4ZM281.31 268.75C267.4 273.89 268.01 285.43 268.01 297.85C268.01 306.89 268.01 315.93 268.01 324.97C268.01 382.34 268.01 439.67 268.01 497.04C268.01 558.45 268.01 619.86 268.01 681.26C268.01 696.23 268.01 711.19 268.01 726.15C268.01 734.28 266.91 742.52 272.53 749.15C280.06 758.05 292.09 755.94 302.52 755.94C327.46 755.94 352.4 755.94 377.34 755.94C470.23 755.94 563.12 755.94 656.01 755.94C678.46 755.94 700.9 755.94 723.35 755.94C732.98 755.94 743.97 757.68 751.07 749.64C761.1 738.27 754.86 720.86 740.81 716.72C733 714.42 723.02 715.97 714.93 715.97C697.79 715.97 680.64 715.97 663.5 715.97C575.59 715.97 487.69 715.97 399.78 715.97C377.96 715.97 356.14 715.97 334.32 715.97C328.13 715.97 314.74 717.92 310.28 713.26C306.23 709.03 308.03 695.47 308.03 689.68C308.03 667.86 308.03 646.04 308.03 624.22C308.03 537.87 308.03 451.53 308.03 365.18C308.03 347.1 308.03 329.02 308.03 310.94C308.03 302.27 309.34 292.37 307.6 283.85C305.33 272.73 292.24 264.7 281.31 268.75ZM620 367.33C615.68 368.67 607.54 365.92 604.79 370.48C602.66 374.01 603.93 380.79 603.93 384.82C603.93 396.98 603.93 409.13 603.93 421.29C603.93 470.85 603.93 520.42 603.93 569.98C603.93 583.07 603.93 596.16 603.93 609.26C603.93 613.29 602.47 621.01 604.88 624.4C607.98 628.73 615.69 626.55 620.02 627.86C619.91 634.59 618.66 651.99 620.4 657.61C621.67 661.73 625.71 664.23 629.83 664.26C643.55 664.37 639.93 645.24 639.93 636.38C639.93 633.48 640 630.59 639.76 627.72C644.07 624.94 652.85 629 655.36 623.07C657.38 618.29 655.97 610.66 655.97 605.52C655.97 592.42 655.97 579.33 655.97 566.24C655.97 520.42 655.97 474.59 655.97 428.77C655.97 414.74 655.97 400.72 655.97 386.69C655.97 382.25 657.47 374.45 654.68 370.74C651.2 366.12 644.22 369.43 639.75 367.17C640.57 359.49 639.97 351.42 639.97 343.67C639.97 338.88 640.69 333.42 639.7 328.72C638.74 324.2 634.4 320.9 629.83 320.94C625.42 320.98 621 324.33 620.16 328.74C619.38 332.89 619.95 337.59 619.95 341.8C619.95 350.31 619.83 358.83 620 367.33ZM448.1 519.24C452.39 518.25 461.15 520.55 463.41 515.38C464.66 512.51 464.01 508.53 464.01 505.45C464.01 498.28 464.01 491.11 464.01 483.95C464.01 459.32 464.01 434.69 464.01 410.07C464.01 402.27 464.01 394.48 464.01 386.69C464.01 383.43 464.78 378.96 463.32 375.96C460.77 370.73 452.63 373.43 448.21 372.12C447.27 359.6 448.23 346.87 448.02 334.32C447.92 328.51 444.75 322.66 438.12 322.58C430.78 322.49 428.06 329.08 428.02 335.25C427.96 343.93 429.54 364.57 427.45 371.73C423.23 372.57 414.75 370.47 412.51 375.61C411.16 378.71 411.99 383.37 411.99 386.69C411.99 394.79 411.99 402.9 411.99 411C411.99 435.32 411.99 459.63 411.99 483.95C411.99 491.11 411.99 498.28 411.99 505.45C411.99 508.59 411.31 512.67 412.44 515.64C414.64 521.35 423.7 518.37 427.8 520.42C428.51 525.91 428.05 531.7 428.05 537.25C428.05 548.16 428.02 559.07 428.02 569.98C428.02 577.31 428.34 586.71 438.12 586.61C447.31 586.52 448.02 577.99 448.02 570.92C448.02 553.7 447.71 536.42 448.1 519.24ZM491.94 399.46C487.72 401.59 478.99 398.24 476.45 403.9C475.32 406.43 475.97 410.16 475.97 412.87C475.97 419.11 475.97 425.34 475.97 431.58C475.97 447.47 475.97 463.37 475.97 479.27C475.97 487.2 474.83 496.18 476.46 503.93C481.14 508.51 486.78 505.4 491.94 507.99C492.09 513.68 491.99 519.39 491.99 525.09C491.99 533.28 490.85 544.77 502.65 544.29C506.72 544.13 510.5 541.22 511.59 537.21C512.98 532.07 512.45 512.69 511.68 507.01C516.38 505.7 524.44 508.47 527.25 503.35C529.15 499.9 528.02 485.76 528.02 481.14C528.02 463.06 528.02 444.98 528.03 426.9C528.03 421.67 529.59 408.03 527.01 403.94C523.94 399.06 516.66 402.19 512.3 400.25C510.83 388.25 512.09 375.43 512.02 363.31C511.98 357.1 508.94 350.84 501.75 351.03C497.42 351.15 493.08 354.39 492.19 358.74C491.36 362.84 491.96 367.56 491.96 371.73C491.96 380.97 492.03 390.22 491.94 399.46ZM363.83 487.21C359.57 489.16 350.96 485.6 348.41 490.97C346.81 494.33 347.94 509.32 347.94 513.87C347.94 530.08 347.94 546.29 347.94 562.5C347.94 567.02 346.84 580.07 348.36 583.59C350.84 589.34 359.85 585.65 363.88 588.25C364.1 593.68 363.98 599.14 363.98 604.58C363.98 612.6 362.98 624.67 374.47 624.28C387.44 623.84 384 605.55 384 597.1C384 593.74 384.51 589.83 383.6 586.64C388.26 586.33 396.84 588.29 399.39 583.12C401.44 578.98 400.04 567.47 400.04 562.5C400.04 546.29 400.04 530.08 400.04 513.87C400.04 509.37 401.13 494.8 399.28 491.52C396.37 486.36 388.92 488.75 384.24 487.51C383.34 480.32 384.03 472.54 384.03 465.24C384.03 450.59 384.03 435.94 384.03 421.29C384.03 413.5 385.15 400.54 373.6 400.93C362.6 401.31 363.94 413.68 363.94 421.29C363.94 443.19 364.89 465.34 363.83 487.21ZM576.27 601.22C580.68 599.25 589.33 602.93 591.57 596.82C593.19 592.39 592 575.66 592 569.98C592 549.41 592 528.83 592 508.26C592 501.71 592 495.17 592 488.62C592 485.69 592.67 481.68 591.3 478.99C588.77 474.04 580.67 476.17 576.19 475.62C575.34 463.54 576.06 451.19 576.01 439.06C575.98 432.15 573.43 425.57 565.33 425.84C557.89 426.09 555.99 432.88 555.97 439.06C555.94 448.12 557.49 467.81 555.23 475.53C550.87 476.14 542.37 473.89 540.26 479.12C539.29 481.53 539.94 485.13 539.94 487.69C539.94 493.61 539.94 499.53 539.94 505.45C539.94 526.65 539.94 547.85 539.94 569.04C539.94 575.9 539.94 582.76 539.94 589.62C539.94 592.12 539.29 595.63 540.62 597.88C543.44 602.68 551.01 600.55 555.35 601.78C558.34 611.46 549.68 638.54 566.24 638.19C570.6 638.09 574.81 635.07 575.75 630.63C577.66 621.62 575.25 610.6 576.27 601.22Z" fill="#FDFBF7" fill-rule="evenodd" stroke="#FDFBF7" stroke-width="0.25" stroke-linejoin="round"/>
  <path d="M281.31 268.75C292.24 264.7 305.33 272.73 307.6 283.85C309.34 292.37 308.03 302.27 308.03 310.94C308.03 329.02 308.03 347.1 308.03 365.18C308.03 451.53 308.03 537.87 308.03 624.22C308.03 646.04 308.03 667.86 308.03 689.68C308.03 695.47 306.23 709.03 310.28 713.26C314.74 717.92 328.13 715.97 334.32 715.97C356.14 715.97 377.96 715.97 399.78 715.97C487.69 715.97 575.59 715.97 663.5 715.97C680.64 715.97 697.79 715.97 714.93 715.97C723.02 715.97 733 714.42 740.81 716.72C754.86 720.86 761.1 738.27 751.07 749.64C743.97 757.68 732.98 755.94 723.35 755.94C700.9 755.94 678.46 755.94 656.01 755.94C563.12 755.94 470.23 755.94 377.34 755.94C352.4 755.94 327.46 755.94 302.52 755.94C292.09 755.94 280.06 758.05 272.53 749.15C266.91 742.52 268.01 734.28 268.01 726.15C268.01 711.19 268.01 696.23 268.01 681.26C268.01 619.86 268.01 558.45 268.01 497.04C268.01 439.67 268.01 382.34 268.01 324.97C268.01 315.93 268.01 306.89 268.01 297.85C268.01 285.43 267.4 273.89 281.31 268.75Z" fill="#6B655C" fill-rule="evenodd" stroke="#6B655C" stroke-width="0.25" stroke-linejoin="round"/>
  <path d="M704.16 292C702.24 293.84 697.05 292.73 694.36 293.1C694.36 341.49 694.36 389.88 694.36 438.27C697.69 438.64 701.02 439.02 704.35 439.4C703.49 445.4 703.97 451.69 703.97 457.76C703.97 468.67 704 479.58 704 490.49C704 497.92 703.18 506.9 693.44 506.6C683.84 506.31 683.92 496.67 683.92 489.56C683.92 478.33 683.95 467.11 683.95 455.89C683.95 450.71 684.86 444.56 683.13 439.69C678.9 439.19 670.5 440.77 668.31 435.64C667.16 432.94 667.88 428.85 667.88 425.97C667.88 418.8 667.88 411.63 667.88 404.46C667.88 379.83 667.88 355.2 667.88 330.58C667.88 322.47 667.88 314.37 667.88 306.26C667.88 303.18 667.05 298.61 668.35 295.74C670.68 290.61 678.78 292.32 683.13 291.9C685.39 284.78 683.89 264.41 683.92 255.77C683.95 249.65 686.12 242.93 693.46 242.55C698.31 242.31 703.16 246.37 703.85 251.15C704.42 255.07 704.01 259.29 704.01 263.25C704.01 272.8 703.59 282.46 704.16 292ZM639.75 367.17C636.97 368.75 633.5 368.09 630.3 368.4C626.86 368.05 623.43 367.69 620 367.33C619.83 358.83 619.95 350.31 619.95 341.8C619.95 337.59 619.38 332.89 620.16 328.74C621 324.33 625.42 320.98 629.83 320.94C634.4 320.9 638.74 324.2 639.7 328.72C640.69 333.42 639.97 338.88 639.97 343.67C639.97 351.42 640.57 359.49 639.75 367.17ZM448.21 372.12C448.01 372.54 448.03 373.48 447.47 373.65C446.82 373.86 446.37 372.79 445.7 372.65C443.24 372.12 440.4 372.84 438.12 373.49C438.12 421.6 438.12 469.72 438.12 517.83C441.45 518.3 444.77 518.77 448.1 519.24C447.71 536.42 448.02 553.7 448.02 570.92C448.02 577.99 447.31 586.52 438.12 586.61C428.34 586.71 428.02 577.31 428.02 569.98C428.02 559.07 428.05 548.16 428.05 537.25C428.05 531.7 428.51 525.91 427.8 520.42C423.7 518.37 414.64 521.35 412.44 515.64C411.31 512.67 411.99 508.59 411.99 505.45C411.99 498.28 411.99 491.11 411.99 483.95C411.99 459.63 411.99 435.32 411.99 411C411.99 402.9 411.99 394.79 411.99 386.69C411.99 383.37 411.16 378.71 412.51 375.61C414.75 370.47 423.23 372.57 427.45 371.73C429.54 364.57 427.96 343.93 428.02 335.25C428.06 329.08 430.78 322.49 438.12 322.58C444.75 322.66 447.92 328.51 448.02 334.32C448.23 346.87 447.27 359.6 448.21 372.12ZM512.3 400.25C508.94 400.53 505.57 400.81 502.2 401.09C498.78 400.55 495.36 400 491.94 399.46C492.03 390.22 491.96 380.97 491.96 371.73C491.96 367.56 491.36 362.84 492.19 358.74C493.08 354.39 497.42 351.15 501.75 351.03C508.94 350.84 511.98 357.1 512.02 363.31C512.09 375.43 510.83 388.25 512.3 400.25ZM384.24 487.51C380.85 487.77 377.46 488.03 374.06 488.28C370.65 487.93 367.24 487.57 363.83 487.21C364.89 465.34 363.94 443.19 363.94 421.29C363.94 413.68 362.6 401.31 373.6 400.93C385.15 400.54 384.03 413.5 384.03 421.29C384.03 435.94 384.03 450.59 384.03 465.24C384.03 472.54 383.34 480.32 384.24 487.51ZM576.19 475.62C572.88 475.9 569.57 476.18 566.25 476.46C566.25 517.61 566.25 558.76 566.24 599.91C569.58 600.34 572.93 600.78 576.27 601.22C575.25 610.6 577.66 621.62 575.75 630.63C574.81 635.07 570.6 638.09 566.24 638.19C549.68 638.54 558.34 611.46 555.35 601.78C551.01 600.55 543.44 602.68 540.62 597.88C539.29 595.63 539.94 592.12 539.94 589.62C539.94 582.76 539.94 575.9 539.94 569.04C539.94 547.85 539.94 526.65 539.94 505.45C539.94 499.53 539.94 493.61 539.94 487.69C539.94 485.13 539.29 481.53 540.26 479.12C542.37 473.89 550.87 476.14 555.23 475.53C557.49 467.81 555.94 448.12 555.97 439.06C555.99 432.88 557.89 426.09 565.33 425.84C573.43 425.57 575.98 432.15 576.01 439.06C576.06 451.19 575.34 463.54 576.19 475.62ZM502.18 506.65C505.35 506.77 508.51 506.89 511.68 507.01C512.45 512.69 512.98 532.07 511.59 537.21C510.5 541.22 506.72 544.13 502.65 544.29C490.85 544.77 491.99 533.28 491.99 525.09C491.99 519.39 492.09 513.68 491.94 507.99C495.35 507.54 498.77 507.09 502.18 506.65ZM374.12 586.47C377.28 586.53 380.44 586.58 383.6 586.64C384.51 589.83 384 593.74 384 597.1C384 605.55 387.44 623.84 374.47 624.28C362.98 624.67 363.98 612.6 363.98 604.58C363.98 599.14 364.1 593.68 363.88 588.25C364.31 587.91 364.75 587.57 365.18 587.23C368.16 586.98 371.14 586.72 374.12 586.47ZM630.3 626.53C633.53 626.61 637.06 625.97 639.76 627.72C640 630.59 639.93 633.48 639.93 636.38C639.93 645.24 643.55 664.37 629.83 664.26C625.71 664.23 621.67 661.73 620.4 657.61C618.66 651.99 619.91 634.59 620.02 627.86C623.44 627.41 626.87 626.97 630.3 626.53Z" fill="#5DAF85" fill-rule="evenodd" stroke="#5DAF85" stroke-width="0.25" stroke-linejoin="round"/>
  <path d="M620 367.33C623.43 367.69 626.86 368.05 630.3 368.4C630.3 454.44 630.3 540.49 630.3 626.53C626.87 626.97 623.44 627.41 620.02 627.86C615.69 626.55 607.98 628.73 604.88 624.4C602.47 621.01 603.93 613.29 603.93 609.26C603.93 596.16 603.93 583.07 603.93 569.98C603.93 520.42 603.93 470.85 603.93 421.29C603.93 409.13 603.93 396.98 603.93 384.82C603.93 380.79 602.66 374.01 604.79 370.48C607.54 365.92 615.68 368.67 620 367.33ZM491.94 399.46C495.36 400 498.78 400.55 502.2 401.09C502.19 436.28 502.19 471.46 502.18 506.65C498.77 507.09 495.35 507.54 491.94 507.99C486.78 505.4 481.14 508.51 476.46 503.93C474.83 496.18 475.97 487.2 475.97 479.27C475.97 463.37 475.97 447.47 475.97 431.58C475.97 425.34 475.97 419.11 475.97 412.87C475.97 410.16 475.32 406.43 476.45 403.9C478.99 398.24 487.72 401.59 491.94 399.46ZM363.83 487.21C367.24 487.57 370.65 487.93 374.06 488.28C374.08 521.01 374.1 553.74 374.12 586.47C371.14 586.72 368.16 586.98 365.18 587.23C364.75 587.57 364.31 587.91 363.88 588.25C359.85 585.65 350.84 589.34 348.36 583.59C346.84 580.07 347.94 567.02 347.94 562.5C347.94 546.29 347.94 530.08 347.94 513.87C347.94 509.32 346.81 494.33 348.41 490.97C350.96 485.6 359.57 489.16 363.83 487.21Z" fill="#D8452F" fill-rule="evenodd" stroke="#D8452F" stroke-width="0.25" stroke-linejoin="round"/>
  <path d="M639.75 367.17C644.22 369.43 651.2 366.12 654.68 370.74C657.47 374.45 655.97 382.25 655.97 386.69C655.97 400.72 655.97 414.74 655.97 428.77C655.97 474.59 655.97 520.42 655.97 566.24C655.97 579.33 655.97 592.42 655.97 605.52C655.97 610.66 657.38 618.29 655.36 623.07C652.85 629 644.07 624.94 639.76 627.72C637.06 625.97 633.53 626.61 630.3 626.53C630.3 540.49 630.3 454.44 630.3 368.4C633.5 368.09 636.97 368.75 639.75 367.17ZM512.3 400.25C516.66 402.19 523.94 399.06 527.01 403.94C529.59 408.03 528.03 421.67 528.03 426.9C528.02 444.98 528.02 463.06 528.02 481.14C528.02 485.76 529.15 499.9 527.25 503.35C524.44 508.47 516.38 505.7 511.68 507.01C508.51 506.89 505.35 506.77 502.18 506.65C502.19 471.46 502.19 436.28 502.2 401.09C505.57 400.81 508.94 400.53 512.3 400.25ZM374.06 488.28C377.46 488.03 380.85 487.77 384.24 487.51C388.92 488.75 396.37 486.36 399.28 491.52C401.13 494.8 400.04 509.37 400.04 513.87C400.04 530.08 400.04 546.29 400.04 562.5C400.04 567.47 401.44 578.98 399.39 583.12C396.84 588.29 388.26 586.33 383.6 586.64C380.44 586.58 377.28 586.53 374.12 586.47C374.1 553.74 374.08 521.01 374.06 488.28Z" fill="#E34F38" fill-rule="evenodd" stroke="#E34F38" stroke-width="0.25" stroke-linejoin="round"/>
  <path d="M704.16 292C708.72 293.77 717.12 290.49 719.51 296.51C720.83 299.81 719.99 304.62 719.99 308.14C719.99 316.24 719.99 324.34 719.99 332.45C719.99 356.14 719.99 379.83 719.99 403.52C719.99 410.69 719.99 417.86 719.99 425.03C719.99 428.07 720.64 432.01 719.58 434.91C717.32 441.06 708.76 437.42 704.35 439.4C701.02 439.02 697.69 438.64 694.36 438.27C694.36 389.88 694.36 341.49 694.36 293.1C697.05 292.73 702.24 293.84 704.16 292ZM448.21 372.12C452.63 373.43 460.77 370.73 463.32 375.96C464.78 378.96 464.01 383.43 464.01 386.69C464.01 394.48 464.01 402.27 464.01 410.07C464.01 434.69 464.01 459.32 464.01 483.95C464.01 491.11 464.01 498.28 464.01 505.45C464.01 508.53 464.66 512.51 463.41 515.38C461.15 520.55 452.39 518.25 448.1 519.24C444.77 518.77 441.45 518.3 438.12 517.83C438.12 469.72 438.12 421.6 438.12 373.49C440.4 372.84 443.24 372.12 445.7 372.65C446.37 372.79 446.82 373.86 447.47 373.65C448.03 373.48 448.01 372.54 448.21 372.12ZM576.19 475.62C580.67 476.17 588.77 474.04 591.3 478.99C592.67 481.68 592 485.69 592 488.62C592 495.17 592 501.71 592 508.26C592 528.83 592 549.41 592 569.98C592 575.66 593.19 592.39 591.57 596.82C589.33 602.93 580.68 599.25 576.27 601.22C572.93 600.78 569.58 600.34 566.24 599.91C566.25 558.76 566.25 517.61 566.25 476.46C569.57 476.18 572.88 475.9 576.19 475.62Z" fill="#7BC49A" fill-rule="evenodd" stroke="#7BC49A" stroke-width="0.25" stroke-linejoin="round"/>
</svg>
